<mxfile host="Electron" modified="2023-05-29T00:51:27.133Z" agent="Mozilla/5.0 (Windows NT 10.0; Win64; x64) AppleWebKit/537.36 (KHTML, like Gecko) draw.io/21.2.8 Chrome/112.0.5615.165 Electron/24.2.0 Safari/537.36" etag="EqkNEI7_NVLLlcDMr2mG" version="21.2.8" type="device">
  <diagram name="Page-1" id="Fk4FGvMYsT7_ybomNfey">
    <mxGraphModel dx="609" dy="1750" grid="1" gridSize="10" guides="1" tooltips="1" connect="1" arrows="1" fold="1" page="1" pageScale="1" pageWidth="850" pageHeight="1100" math="0" shadow="0">
      <root>
        <mxCell id="0" />
        <mxCell id="1" parent="0" />
        <mxCell id="lCuFm-4i7lxRZSxsZMCD-52" value="" style="whiteSpace=wrap;html=1;" vertex="1" parent="1">
          <mxGeometry x="643.92" y="800" width="200" height="480" as="geometry" />
        </mxCell>
        <mxCell id="lCuFm-4i7lxRZSxsZMCD-30" value="Final file (Envelope file)" style="rounded=1;arcSize=10;dashed=1;strokeColor=#F59D56;fillColor=none;gradientColor=none;dashPattern=8 4;strokeWidth=2;verticalAlign=top;fontStyle=1;fontSize=19;" vertex="1" parent="1">
          <mxGeometry x="190" y="379" width="290" height="151" as="geometry" />
        </mxCell>
        <mxCell id="lCuFm-4i7lxRZSxsZMCD-1" style="edgeStyle=orthogonalEdgeStyle;rounded=0;orthogonalLoop=1;jettySize=auto;html=1;entryX=0;entryY=0.25;entryDx=0;entryDy=0;" edge="1" parent="1" source="lCuFm-4i7lxRZSxsZMCD-2" target="lCuFm-4i7lxRZSxsZMCD-4">
          <mxGeometry relative="1" as="geometry" />
        </mxCell>
        <mxCell id="lCuFm-4i7lxRZSxsZMCD-2" value="" style="sketch=0;outlineConnect=0;fontColor=#232F3E;gradientColor=none;fillColor=#232F3D;strokeColor=none;dashed=0;verticalLabelPosition=bottom;verticalAlign=top;align=center;html=1;fontSize=12;fontStyle=0;aspect=fixed;pointerEvents=1;shape=mxgraph.aws4.external_sdk;" vertex="1" parent="1">
          <mxGeometry x="289" y="161" width="68" height="78" as="geometry" />
        </mxCell>
        <mxCell id="lCuFm-4i7lxRZSxsZMCD-3" style="edgeStyle=orthogonalEdgeStyle;rounded=0;orthogonalLoop=1;jettySize=auto;html=1;" edge="1" parent="1" source="lCuFm-4i7lxRZSxsZMCD-4" target="lCuFm-4i7lxRZSxsZMCD-21">
          <mxGeometry relative="1" as="geometry" />
        </mxCell>
        <mxCell id="lCuFm-4i7lxRZSxsZMCD-4" value="" style="whiteSpace=wrap;html=1;" vertex="1" parent="1">
          <mxGeometry x="680" y="79.5" width="200" height="480" as="geometry" />
        </mxCell>
        <mxCell id="lCuFm-4i7lxRZSxsZMCD-7" value="KMS" style="sketch=0;points=[[0,0,0],[0.25,0,0],[0.5,0,0],[0.75,0,0],[1,0,0],[0,1,0],[0.25,1,0],[0.5,1,0],[0.75,1,0],[1,1,0],[0,0.25,0],[0,0.5,0],[0,0.75,0],[1,0.25,0],[1,0.5,0],[1,0.75,0]];outlineConnect=0;fontColor=#232F3E;gradientColor=#F54749;gradientDirection=north;fillColor=#C7131F;strokeColor=#ffffff;dashed=0;verticalLabelPosition=bottom;verticalAlign=top;align=center;html=1;fontSize=12;fontStyle=0;aspect=fixed;shape=mxgraph.aws4.resourceIcon;resIcon=mxgraph.aws4.key_management_service;" vertex="1" parent="1">
          <mxGeometry x="741" y="120.5" width="78" height="78" as="geometry" />
        </mxCell>
        <mxCell id="lCuFm-4i7lxRZSxsZMCD-8" style="edgeStyle=orthogonalEdgeStyle;rounded=0;orthogonalLoop=1;jettySize=auto;html=1;entryX=1;entryY=0.25;entryDx=0;entryDy=0;startArrow=classic;startFill=1;" edge="1" parent="1" source="lCuFm-4i7lxRZSxsZMCD-9" target="lCuFm-4i7lxRZSxsZMCD-4">
          <mxGeometry relative="1" as="geometry" />
        </mxCell>
        <mxCell id="lCuFm-4i7lxRZSxsZMCD-9" value="" style="sketch=0;points=[[0,0,0],[0.25,0,0],[0.5,0,0],[0.75,0,0],[1,0,0],[0,1,0],[0.25,1,0],[0.5,1,0],[0.75,1,0],[1,1,0],[0,0.25,0],[0,0.5,0],[0,0.75,0],[1,0.25,0],[1,0.5,0],[1,0.75,0]];outlineConnect=0;fontColor=#232F3E;gradientColor=#F54749;gradientDirection=north;fillColor=#C7131F;strokeColor=#ffffff;dashed=0;verticalLabelPosition=bottom;verticalAlign=top;align=center;html=1;fontSize=12;fontStyle=0;aspect=fixed;shape=mxgraph.aws4.resourceIcon;resIcon=mxgraph.aws4.identity_and_access_management;" vertex="1" parent="1">
          <mxGeometry x="1120" y="160.5" width="78" height="78" as="geometry" />
        </mxCell>
        <mxCell id="lCuFm-4i7lxRZSxsZMCD-43" style="edgeStyle=orthogonalEdgeStyle;rounded=0;orthogonalLoop=1;jettySize=auto;html=1;" edge="1" parent="1" source="lCuFm-4i7lxRZSxsZMCD-10" target="lCuFm-4i7lxRZSxsZMCD-23">
          <mxGeometry relative="1" as="geometry" />
        </mxCell>
        <mxCell id="lCuFm-4i7lxRZSxsZMCD-44" style="edgeStyle=orthogonalEdgeStyle;rounded=0;orthogonalLoop=1;jettySize=auto;html=1;" edge="1" parent="1" source="lCuFm-4i7lxRZSxsZMCD-10" target="lCuFm-4i7lxRZSxsZMCD-27">
          <mxGeometry relative="1" as="geometry">
            <Array as="points">
              <mxPoint x="590" y="259" />
            </Array>
          </mxGeometry>
        </mxCell>
        <mxCell id="lCuFm-4i7lxRZSxsZMCD-10" value="3. Perform &lt;b&gt;encryption&lt;/b&gt;&lt;br&gt;CMK - Customer Master Key&lt;br&gt;&lt;b&gt;&lt;font color=&quot;#cc0066&quot;&gt;Generate Data Key&lt;/font&gt; and &lt;br&gt;&lt;font color=&quot;#0000cc&quot;&gt;Encrypt Data Key (DEK)&lt;/font&gt;&lt;/b&gt;" style="sketch=0;outlineConnect=0;fontColor=#232F3E;gradientColor=none;fillColor=#BF0816;strokeColor=none;dashed=0;verticalLabelPosition=bottom;verticalAlign=top;align=center;html=1;fontSize=12;fontStyle=0;aspect=fixed;pointerEvents=1;shape=mxgraph.aws4.addon;" vertex="1" parent="1">
          <mxGeometry x="741" y="238.5" width="78" height="40" as="geometry" />
        </mxCell>
        <mxCell id="lCuFm-4i7lxRZSxsZMCD-13" value="&lt;b&gt;1. GenerateDataKey&lt;/b&gt;" style="text;html=1;align=center;verticalAlign=middle;resizable=0;points=[];autosize=1;strokeColor=none;fillColor=none;" vertex="1" parent="1">
          <mxGeometry x="381" y="168" width="140" height="30" as="geometry" />
        </mxCell>
        <mxCell id="lCuFm-4i7lxRZSxsZMCD-14" value="" style="sketch=0;outlineConnect=0;fontColor=#232F3E;gradientColor=none;fillColor=#BF0816;strokeColor=none;dashed=0;verticalLabelPosition=bottom;verticalAlign=top;align=center;html=1;fontSize=12;fontStyle=0;aspect=fixed;pointerEvents=1;shape=mxgraph.aws4.permissions;" vertex="1" parent="1">
          <mxGeometry x="980" y="109.5" width="62" height="78" as="geometry" />
        </mxCell>
        <mxCell id="lCuFm-4i7lxRZSxsZMCD-15" value="2. Check IAM permissions" style="text;html=1;align=center;verticalAlign=middle;resizable=0;points=[];autosize=1;strokeColor=none;fillColor=none;" vertex="1" parent="1">
          <mxGeometry x="931" y="205.5" width="160" height="30" as="geometry" />
        </mxCell>
        <mxCell id="lCuFm-4i7lxRZSxsZMCD-45" style="edgeStyle=orthogonalEdgeStyle;rounded=0;orthogonalLoop=1;jettySize=auto;html=1;entryX=0;entryY=0.5;entryDx=0;entryDy=0;" edge="1" parent="1" source="lCuFm-4i7lxRZSxsZMCD-20" target="lCuFm-4i7lxRZSxsZMCD-25">
          <mxGeometry relative="1" as="geometry">
            <Array as="points">
              <mxPoint x="170" y="270" />
              <mxPoint x="170" y="494" />
            </Array>
          </mxGeometry>
        </mxCell>
        <mxCell id="lCuFm-4i7lxRZSxsZMCD-20" value="BIG File/Secret/Data with &amp;gt; 4 kb or for example 10MB" style="whiteSpace=wrap;html=1;fillColor=#fad7ac;strokeColor=#b46504;" vertex="1" parent="1">
          <mxGeometry x="190" y="250" width="210" height="40" as="geometry" />
        </mxCell>
        <mxCell id="lCuFm-4i7lxRZSxsZMCD-46" style="edgeStyle=orthogonalEdgeStyle;rounded=0;orthogonalLoop=1;jettySize=auto;html=1;entryX=0;entryY=0.5;entryDx=0;entryDy=0;" edge="1" parent="1" source="lCuFm-4i7lxRZSxsZMCD-21" target="lCuFm-4i7lxRZSxsZMCD-25">
          <mxGeometry relative="1" as="geometry">
            <Array as="points">
              <mxPoint x="170" y="320" />
              <mxPoint x="170" y="494" />
            </Array>
          </mxGeometry>
        </mxCell>
        <mxCell id="lCuFm-4i7lxRZSxsZMCD-21" value="Plaintext DEK &lt;br&gt;(Data Encryption Key)" style="whiteSpace=wrap;html=1;" vertex="1" parent="1">
          <mxGeometry x="190" y="298" width="210.5" height="43" as="geometry" />
        </mxCell>
        <mxCell id="lCuFm-4i7lxRZSxsZMCD-23" value="4. Send plaintext data key" style="text;html=1;align=center;verticalAlign=middle;resizable=0;points=[];autosize=1;strokeColor=none;fillColor=none;" vertex="1" parent="1">
          <mxGeometry x="410" y="290" width="160" height="30" as="geometry" />
        </mxCell>
        <mxCell id="lCuFm-4i7lxRZSxsZMCD-25" value="Encrypted File" style="whiteSpace=wrap;html=1;" vertex="1" parent="1">
          <mxGeometry x="210" y="471" width="155" height="45" as="geometry" />
        </mxCell>
        <mxCell id="lCuFm-4i7lxRZSxsZMCD-26" value="" style="sketch=0;outlineConnect=0;fontColor=#232F3E;gradientColor=none;fillColor=#BF0816;strokeColor=none;dashed=0;verticalLabelPosition=bottom;verticalAlign=top;align=center;html=1;fontSize=12;fontStyle=0;aspect=fixed;pointerEvents=1;shape=mxgraph.aws4.encrypted_data;" vertex="1" parent="1">
          <mxGeometry x="216.13" y="478.5" width="23.84" height="30" as="geometry" />
        </mxCell>
        <mxCell id="lCuFm-4i7lxRZSxsZMCD-27" value="4. Send Encrypted Data Key (DEK)" style="text;html=1;align=center;verticalAlign=middle;resizable=0;points=[];autosize=1;strokeColor=none;fillColor=none;" vertex="1" parent="1">
          <mxGeometry x="473.91999999999996" y="410" width="210" height="30" as="geometry" />
        </mxCell>
        <mxCell id="lCuFm-4i7lxRZSxsZMCD-31" value="" style="sketch=0;outlineConnect=0;fontColor=#232F3E;gradientColor=none;fillColor=#BF0816;strokeColor=none;dashed=0;verticalLabelPosition=bottom;verticalAlign=top;align=center;html=1;fontSize=12;fontStyle=0;aspect=fixed;pointerEvents=1;shape=mxgraph.aws4.data_encryption_key;" vertex="1" parent="1">
          <mxGeometry x="199" y="304.5" width="23.05" height="29" as="geometry" />
        </mxCell>
        <mxCell id="lCuFm-4i7lxRZSxsZMCD-42" style="edgeStyle=orthogonalEdgeStyle;rounded=0;orthogonalLoop=1;jettySize=auto;html=1;exitX=0;exitY=0.75;exitDx=0;exitDy=0;" edge="1" parent="1" source="lCuFm-4i7lxRZSxsZMCD-4" target="lCuFm-4i7lxRZSxsZMCD-35">
          <mxGeometry relative="1" as="geometry" />
        </mxCell>
        <mxCell id="lCuFm-4i7lxRZSxsZMCD-35" value="Encrypted DEK &lt;br&gt;(Data Encryption Key)" style="whiteSpace=wrap;html=1;" vertex="1" parent="1">
          <mxGeometry x="209.5" y="418.5" width="250.5" height="43" as="geometry" />
        </mxCell>
        <mxCell id="lCuFm-4i7lxRZSxsZMCD-36" value="" style="sketch=0;outlineConnect=0;fontColor=#232F3E;gradientColor=none;fillColor=#BF0816;strokeColor=none;dashed=0;verticalLabelPosition=bottom;verticalAlign=top;align=center;html=1;fontSize=12;fontStyle=0;aspect=fixed;pointerEvents=1;shape=mxgraph.aws4.data_encryption_key;" vertex="1" parent="1">
          <mxGeometry x="249.5" y="425.5" width="23.05" height="29" as="geometry" />
        </mxCell>
        <mxCell id="lCuFm-4i7lxRZSxsZMCD-39" value="" style="sketch=0;outlineConnect=0;fontColor=#232F3E;gradientColor=none;fillColor=#BF0816;strokeColor=none;dashed=0;verticalLabelPosition=bottom;verticalAlign=top;align=center;html=1;fontSize=12;fontStyle=0;aspect=fixed;pointerEvents=1;shape=mxgraph.aws4.encrypted_data;" vertex="1" parent="1">
          <mxGeometry x="219.5" y="424.5" width="23.84" height="30" as="geometry" />
        </mxCell>
        <mxCell id="lCuFm-4i7lxRZSxsZMCD-41" value="Client Side encryption Using DEK" style="text;html=1;align=center;verticalAlign=middle;resizable=0;points=[];autosize=1;strokeColor=none;fillColor=none;rotation=-90;" vertex="1" parent="1">
          <mxGeometry x="49.5" y="370" width="200" height="30" as="geometry" />
        </mxCell>
        <mxCell id="lCuFm-4i7lxRZSxsZMCD-47" value="&lt;font style=&quot;font-size: 30px;&quot;&gt;&lt;b&gt;Envelope Encryption - GenerateDataKey API&lt;/b&gt;&lt;/font&gt;" style="text;html=1;align=center;verticalAlign=middle;resizable=0;points=[];autosize=1;strokeColor=none;fillColor=none;" vertex="1" parent="1">
          <mxGeometry x="334.99999999999994" y="-30" width="660" height="50" as="geometry" />
        </mxCell>
        <mxCell id="lCuFm-4i7lxRZSxsZMCD-87" style="edgeStyle=orthogonalEdgeStyle;rounded=0;orthogonalLoop=1;jettySize=auto;html=1;entryX=0;entryY=0.5;entryDx=0;entryDy=0;" edge="1" parent="1" source="lCuFm-4i7lxRZSxsZMCD-48" target="lCuFm-4i7lxRZSxsZMCD-65">
          <mxGeometry relative="1" as="geometry">
            <Array as="points">
              <mxPoint x="190" y="995" />
              <mxPoint x="190" y="1162" />
            </Array>
          </mxGeometry>
        </mxCell>
        <mxCell id="lCuFm-4i7lxRZSxsZMCD-48" value="Envelope file" style="rounded=1;arcSize=10;dashed=1;strokeColor=#F59D56;fillColor=none;gradientColor=none;dashPattern=8 4;strokeWidth=2;verticalAlign=top;fontStyle=1;fontSize=19;" vertex="1" parent="1">
          <mxGeometry x="209.5" y="919" width="290" height="151" as="geometry" />
        </mxCell>
        <mxCell id="lCuFm-4i7lxRZSxsZMCD-50" value="" style="sketch=0;outlineConnect=0;fontColor=#232F3E;gradientColor=none;fillColor=#232F3D;strokeColor=none;dashed=0;verticalLabelPosition=bottom;verticalAlign=top;align=center;html=1;fontSize=12;fontStyle=0;aspect=fixed;pointerEvents=1;shape=mxgraph.aws4.external_sdk;" vertex="1" parent="1">
          <mxGeometry x="555.09" y="911" width="31.82" height="36.5" as="geometry" />
        </mxCell>
        <mxCell id="lCuFm-4i7lxRZSxsZMCD-53" value="KMS" style="sketch=0;points=[[0,0,0],[0.25,0,0],[0.5,0,0],[0.75,0,0],[1,0,0],[0,1,0],[0.25,1,0],[0.5,1,0],[0.75,1,0],[1,1,0],[0,0.25,0],[0,0.5,0],[0,0.75,0],[1,0.25,0],[1,0.5,0],[1,0.75,0]];outlineConnect=0;fontColor=#232F3E;gradientColor=#F54749;gradientDirection=north;fillColor=#C7131F;strokeColor=#ffffff;dashed=0;verticalLabelPosition=bottom;verticalAlign=top;align=center;html=1;fontSize=12;fontStyle=0;aspect=fixed;shape=mxgraph.aws4.resourceIcon;resIcon=mxgraph.aws4.key_management_service;" vertex="1" parent="1">
          <mxGeometry x="704.92" y="841" width="78" height="78" as="geometry" />
        </mxCell>
        <mxCell id="lCuFm-4i7lxRZSxsZMCD-54" style="edgeStyle=orthogonalEdgeStyle;rounded=0;orthogonalLoop=1;jettySize=auto;html=1;entryX=1;entryY=0.25;entryDx=0;entryDy=0;startArrow=classic;startFill=1;" edge="1" parent="1" source="lCuFm-4i7lxRZSxsZMCD-55" target="lCuFm-4i7lxRZSxsZMCD-52">
          <mxGeometry relative="1" as="geometry" />
        </mxCell>
        <mxCell id="lCuFm-4i7lxRZSxsZMCD-55" value="" style="sketch=0;points=[[0,0,0],[0.25,0,0],[0.5,0,0],[0.75,0,0],[1,0,0],[0,1,0],[0.25,1,0],[0.5,1,0],[0.75,1,0],[1,1,0],[0,0.25,0],[0,0.5,0],[0,0.75,0],[1,0.25,0],[1,0.5,0],[1,0.75,0]];outlineConnect=0;fontColor=#232F3E;gradientColor=#F54749;gradientDirection=north;fillColor=#C7131F;strokeColor=#ffffff;dashed=0;verticalLabelPosition=bottom;verticalAlign=top;align=center;html=1;fontSize=12;fontStyle=0;aspect=fixed;shape=mxgraph.aws4.resourceIcon;resIcon=mxgraph.aws4.identity_and_access_management;" vertex="1" parent="1">
          <mxGeometry x="1083.92" y="881" width="78" height="78" as="geometry" />
        </mxCell>
        <mxCell id="lCuFm-4i7lxRZSxsZMCD-83" style="edgeStyle=orthogonalEdgeStyle;rounded=0;orthogonalLoop=1;jettySize=auto;html=1;entryX=1;entryY=0.5;entryDx=0;entryDy=0;" edge="1" parent="1" source="lCuFm-4i7lxRZSxsZMCD-58" target="lCuFm-4i7lxRZSxsZMCD-65">
          <mxGeometry relative="1" as="geometry">
            <Array as="points">
              <mxPoint x="582" y="990" />
              <mxPoint x="582" y="1161" />
            </Array>
          </mxGeometry>
        </mxCell>
        <mxCell id="lCuFm-4i7lxRZSxsZMCD-58" value="3. Perform &lt;b&gt;encryption&lt;/b&gt;&lt;br&gt;CMK - Customer Master Key&lt;br&gt;&lt;b&gt;Decrypt Data Key&lt;/b&gt;" style="sketch=0;outlineConnect=0;fontColor=#232F3E;gradientColor=none;fillColor=#BF0816;strokeColor=none;dashed=0;verticalLabelPosition=bottom;verticalAlign=top;align=center;html=1;fontSize=12;fontStyle=0;aspect=fixed;pointerEvents=1;shape=mxgraph.aws4.addon;" vertex="1" parent="1">
          <mxGeometry x="704.92" y="959" width="78" height="40" as="geometry" />
        </mxCell>
        <mxCell id="lCuFm-4i7lxRZSxsZMCD-59" value="&lt;b&gt;1. Decrypt API&lt;/b&gt;" style="text;html=1;align=center;verticalAlign=middle;resizable=0;points=[];autosize=1;strokeColor=none;fillColor=none;" vertex="1" parent="1">
          <mxGeometry x="521" y="941" width="100" height="30" as="geometry" />
        </mxCell>
        <mxCell id="lCuFm-4i7lxRZSxsZMCD-60" value="" style="sketch=0;outlineConnect=0;fontColor=#232F3E;gradientColor=none;fillColor=#BF0816;strokeColor=none;dashed=0;verticalLabelPosition=bottom;verticalAlign=top;align=center;html=1;fontSize=12;fontStyle=0;aspect=fixed;pointerEvents=1;shape=mxgraph.aws4.permissions;" vertex="1" parent="1">
          <mxGeometry x="943.92" y="830" width="62" height="78" as="geometry" />
        </mxCell>
        <mxCell id="lCuFm-4i7lxRZSxsZMCD-61" value="2. Check IAM permissions" style="text;html=1;align=center;verticalAlign=middle;resizable=0;points=[];autosize=1;strokeColor=none;fillColor=none;" vertex="1" parent="1">
          <mxGeometry x="894.92" y="926" width="160" height="30" as="geometry" />
        </mxCell>
        <mxCell id="lCuFm-4i7lxRZSxsZMCD-63" value="Decrypted BIG File" style="whiteSpace=wrap;html=1;fillColor=#fad7ac;strokeColor=#b46504;" vertex="1" parent="1">
          <mxGeometry x="216.63" y="1260" width="210" height="40" as="geometry" />
        </mxCell>
        <mxCell id="lCuFm-4i7lxRZSxsZMCD-86" style="edgeStyle=orthogonalEdgeStyle;rounded=0;orthogonalLoop=1;jettySize=auto;html=1;entryX=0.5;entryY=0;entryDx=0;entryDy=0;" edge="1" parent="1" source="lCuFm-4i7lxRZSxsZMCD-65" target="lCuFm-4i7lxRZSxsZMCD-63">
          <mxGeometry relative="1" as="geometry" />
        </mxCell>
        <mxCell id="lCuFm-4i7lxRZSxsZMCD-65" value="Plaintext DEK &lt;br&gt;(Data Encryption Key)" style="whiteSpace=wrap;html=1;" vertex="1" parent="1">
          <mxGeometry x="216.13" y="1140" width="210.5" height="43" as="geometry" />
        </mxCell>
        <mxCell id="lCuFm-4i7lxRZSxsZMCD-66" value="5. Decrypt" style="text;html=1;align=center;verticalAlign=middle;resizable=0;points=[];autosize=1;strokeColor=none;fillColor=none;" vertex="1" parent="1">
          <mxGeometry x="320.5000000000001" y="1200" width="80" height="30" as="geometry" />
        </mxCell>
        <mxCell id="lCuFm-4i7lxRZSxsZMCD-67" value="Encrypted File" style="whiteSpace=wrap;html=1;" vertex="1" parent="1">
          <mxGeometry x="229.5" y="1011" width="155" height="45" as="geometry" />
        </mxCell>
        <mxCell id="lCuFm-4i7lxRZSxsZMCD-68" value="" style="sketch=0;outlineConnect=0;fontColor=#232F3E;gradientColor=none;fillColor=#BF0816;strokeColor=none;dashed=0;verticalLabelPosition=bottom;verticalAlign=top;align=center;html=1;fontSize=12;fontStyle=0;aspect=fixed;pointerEvents=1;shape=mxgraph.aws4.encrypted_data;" vertex="1" parent="1">
          <mxGeometry x="235.63" y="1018.5" width="23.84" height="30" as="geometry" />
        </mxCell>
        <mxCell id="lCuFm-4i7lxRZSxsZMCD-69" value="4. Send plaintext data key" style="text;html=1;align=center;verticalAlign=middle;resizable=0;points=[];autosize=1;strokeColor=none;fillColor=none;" vertex="1" parent="1">
          <mxGeometry x="426.63" y="1130" width="160" height="30" as="geometry" />
        </mxCell>
        <mxCell id="lCuFm-4i7lxRZSxsZMCD-70" value="" style="sketch=0;outlineConnect=0;fontColor=#232F3E;gradientColor=none;fillColor=#BF0816;strokeColor=none;dashed=0;verticalLabelPosition=bottom;verticalAlign=top;align=center;html=1;fontSize=12;fontStyle=0;aspect=fixed;pointerEvents=1;shape=mxgraph.aws4.data_encryption_key;" vertex="1" parent="1">
          <mxGeometry x="228.07999999999998" y="1147" width="23.05" height="29" as="geometry" />
        </mxCell>
        <mxCell id="lCuFm-4i7lxRZSxsZMCD-82" style="edgeStyle=orthogonalEdgeStyle;rounded=0;orthogonalLoop=1;jettySize=auto;html=1;" edge="1" parent="1" source="lCuFm-4i7lxRZSxsZMCD-72" target="lCuFm-4i7lxRZSxsZMCD-58">
          <mxGeometry relative="1" as="geometry" />
        </mxCell>
        <mxCell id="lCuFm-4i7lxRZSxsZMCD-72" value="Encrypted DEK &lt;br&gt;(Data Encryption Key)" style="whiteSpace=wrap;html=1;" vertex="1" parent="1">
          <mxGeometry x="229" y="958.5" width="250.5" height="43" as="geometry" />
        </mxCell>
        <mxCell id="lCuFm-4i7lxRZSxsZMCD-73" value="" style="sketch=0;outlineConnect=0;fontColor=#232F3E;gradientColor=none;fillColor=#BF0816;strokeColor=none;dashed=0;verticalLabelPosition=bottom;verticalAlign=top;align=center;html=1;fontSize=12;fontStyle=0;aspect=fixed;pointerEvents=1;shape=mxgraph.aws4.data_encryption_key;" vertex="1" parent="1">
          <mxGeometry x="269" y="965.5" width="23.05" height="29" as="geometry" />
        </mxCell>
        <mxCell id="lCuFm-4i7lxRZSxsZMCD-74" value="" style="sketch=0;outlineConnect=0;fontColor=#232F3E;gradientColor=none;fillColor=#BF0816;strokeColor=none;dashed=0;verticalLabelPosition=bottom;verticalAlign=top;align=center;html=1;fontSize=12;fontStyle=0;aspect=fixed;pointerEvents=1;shape=mxgraph.aws4.encrypted_data;" vertex="1" parent="1">
          <mxGeometry x="239" y="964.5" width="23.84" height="30" as="geometry" />
        </mxCell>
        <mxCell id="lCuFm-4i7lxRZSxsZMCD-75" value="Client Side decryption Using DEK" style="text;html=1;align=center;verticalAlign=middle;resizable=0;points=[];autosize=1;strokeColor=none;fillColor=none;rotation=-90;" vertex="1" parent="1">
          <mxGeometry x="69" y="1056" width="200" height="30" as="geometry" />
        </mxCell>
        <mxCell id="lCuFm-4i7lxRZSxsZMCD-77" value="&lt;font style=&quot;font-size: 30px;&quot;&gt;&lt;b&gt;Envelope Encryption - Decrypt envelope data&lt;/b&gt;&lt;/font&gt;" style="text;html=1;align=center;verticalAlign=middle;resizable=0;points=[];autosize=1;strokeColor=none;fillColor=none;" vertex="1" parent="1">
          <mxGeometry x="340.91999999999996" y="750" width="670" height="50" as="geometry" />
        </mxCell>
      </root>
    </mxGraphModel>
  </diagram>
</mxfile>
